<svg width="33" height="40" viewBox="0 0 33 40" fill="none" xmlns="http://www.w3.org/2000/svg">
<path d="M9.93359 7.01367C11.774 8.38129 12.9901 10.0624 13.626 12.0645L14.2373 13.9873L19.1084 7.05859C23.6471 9.50152 27.4634 11.5447 30.5547 13.1924C27.4061 14.9173 25.2105 16.1283 23.9707 16.8242L23.1885 17.2637L23.54 18.0889C24.63 20.6419 25.6905 23.203 26.7207 25.7715L26.7236 25.7773C27.7813 28.361 28.9373 30.8979 30.1914 33.3877C30.6553 34.323 31.3288 35.0371 32.1797 35.5371C31.3934 36.0994 30.6054 36.6603 29.8135 37.2168C28.874 37.8734 27.9346 38.5344 26.9951 39.1992C24.4574 32.6843 21.6599 26.329 18.6035 20.1328C19.4106 19.5924 20.2184 19.0486 21.0254 18.499L21.0342 18.4932C22.0774 17.7673 23.1283 17.0493 24.1865 16.3389L25.502 15.4551L24.1387 14.6484C22.1557 13.4742 20.0146 12.1667 17.7148 10.7275L16.9121 10.2256L14.0312 14.3115L14.0527 14.6611C14.0665 14.8893 14.0732 15.1176 14.0732 15.3457C14.0732 19.6007 12.1129 25.0879 7.99805 31.8613L7.35742 32.916L14.4951 35.417C14.9382 35.5754 15.4516 35.6426 16.0029 35.6553L12.752 39.5547L4.02832 35.9951C7.62114 32.1052 9.44913 27.5942 9.44922 22.4902C9.44922 19.3113 8.70967 15.8663 7.26953 12.167L7.12012 11.7822L6.74219 11.6152L6.5332 11.5273C6.06403 11.3414 5.54132 11.2041 4.9707 11.1064L9.93359 7.01367ZM25.5137 38.1641C25.5476 38.2496 25.5814 38.3353 25.6152 38.4209C25.5814 38.3353 25.5476 38.2496 25.5137 38.1641ZM24.459 35.5498C24.5186 35.6953 24.5783 35.8407 24.6377 35.9863C24.5783 35.8407 24.5186 35.6952 24.459 35.5498ZM3.69629 34.8711C3.67457 34.8959 3.65273 34.9206 3.63086 34.9453C3.65273 34.9206 3.67457 34.8959 3.69629 34.8711ZM15.791 34.6494C15.6781 34.6426 15.5708 34.631 15.4688 34.6182C15.5708 34.631 15.6781 34.6426 15.791 34.6494ZM16.418 34.6543C16.3412 34.6584 16.2673 34.6611 16.1963 34.6611C16.2673 34.6611 16.3412 34.6584 16.418 34.6543ZM15.0635 34.5449C15.0446 34.5402 15.0261 34.5352 15.0078 34.5303C15.0261 34.5352 15.0446 34.5402 15.0635 34.5449ZM4.3584 34.0801C4.301 34.1521 4.2422 34.2233 4.18359 34.2949C4.2422 34.2233 4.301 34.1521 4.3584 34.0801ZM23.3389 32.8633C23.463 33.1558 23.5859 33.449 23.709 33.7422C23.5859 33.449 23.463 33.1558 23.3389 32.8633ZM5.22168 32.916C5.1885 32.9642 5.15381 33.0115 5.12012 33.0596C5.15381 33.0115 5.1885 32.9642 5.22168 32.916ZM5.47559 32.5361C5.44285 32.5862 5.40925 32.6357 5.37598 32.6855C5.40925 32.6357 5.44285 32.5862 5.47559 32.5361ZM22.8105 31.6279C22.9292 31.9033 23.0473 32.1791 23.165 32.4551C23.0473 32.1791 22.9292 31.9033 22.8105 31.6279ZM5.74805 32.1074C5.70645 32.1748 5.66365 32.2415 5.62109 32.3086C5.66366 32.2415 5.70645 32.1748 5.74805 32.1074ZM5.99023 31.7041C5.95959 31.7566 5.92868 31.809 5.89746 31.8613C5.92868 31.809 5.95959 31.7566 5.99023 31.7041ZM6.22949 31.2822C6.18738 31.3589 6.14488 31.4355 6.10156 31.5117C6.14488 31.4355 6.18737 31.3589 6.22949 31.2822ZM22.2236 30.2793C22.3405 30.546 22.4573 30.8128 22.5732 31.0801C22.4573 30.8128 22.3405 30.546 22.2236 30.2793ZM6.42969 30.9062C6.4007 30.962 6.3714 31.0177 6.3418 31.0732C6.37141 31.0177 6.4007 30.962 6.42969 30.9062ZM6.63867 30.4922C6.62011 30.5302 6.60186 30.5685 6.58301 30.6064C6.60186 30.5685 6.62011 30.5302 6.63867 30.4922ZM6.83496 30.0752C6.81519 30.1185 6.79552 30.1619 6.77539 30.2051C6.79552 30.1619 6.81519 30.1185 6.83496 30.0752ZM21.668 29.0215C21.8019 29.3223 21.9356 29.6233 22.0684 29.9248C21.9356 29.6233 21.8019 29.3223 21.668 29.0215ZM7.04199 29.6035C7.01434 29.6691 6.98648 29.7345 6.95801 29.7998C6.98648 29.7345 7.01434 29.6691 7.04199 29.6035ZM7.21582 29.1768C7.18903 29.2452 7.16243 29.3137 7.13477 29.3818C7.16243 29.3137 7.18903 29.2452 7.21582 29.1768ZM7.36816 28.7734C7.3493 28.8253 7.3299 28.877 7.31055 28.9287C7.32991 28.877 7.3493 28.8253 7.36816 28.7734ZM7.52246 28.3291C7.50386 28.3849 7.48498 28.4405 7.46582 28.4961C7.48498 28.4405 7.50386 28.3849 7.52246 28.3291ZM21.1582 27.8848C21.2416 28.0696 21.3252 28.2544 21.4082 28.4395C21.3252 28.2544 21.2416 28.0696 21.1582 27.8848ZM7.66797 27.8711C7.64841 27.9356 7.62967 28.0002 7.60938 28.0645C7.62967 28.0002 7.64841 27.9356 7.66797 27.8711ZM7.80176 27.4102C7.7824 27.4809 7.7634 27.5516 7.74316 27.6221C7.7634 27.5516 7.78239 27.4809 7.80176 27.4102ZM17.9502 21.0664C18.953 23.1113 19.9268 25.1741 20.873 27.2539C20.124 25.6076 19.3577 23.9721 18.5732 22.3477L17.9502 21.0664ZM7.93555 26.8926C7.91309 26.9856 7.89015 27.0784 7.86621 27.1709C7.89016 27.0784 7.91308 26.9856 7.93555 26.8926ZM8.03613 26.4502C8.01506 26.5484 7.99437 26.6465 7.97168 26.7441C7.99438 26.6465 8.01506 26.5484 8.03613 26.4502ZM27.6484 25.3984C27.8327 25.8485 28.0216 26.2969 28.2119 26.7441C28.0215 26.2968 27.8327 25.8486 27.6484 25.3984ZM8.10449 26.1162C8.09516 26.1641 8.08589 26.212 8.07617 26.2598C8.08589 26.212 8.09516 26.1641 8.10449 26.1162ZM8.19434 25.6143C8.18332 25.6807 8.17287 25.7472 8.16113 25.8135C8.17287 25.7472 8.18332 25.6807 8.19434 25.6143ZM8.26074 25.1846C8.25352 25.2357 8.2469 25.2869 8.23926 25.3379C8.2469 25.2869 8.25352 25.2357 8.26074 25.1846ZM25.2744 19.6172C25.544 20.2583 25.8114 20.8999 26.0771 21.542H26.0762C25.8104 20.8999 25.543 20.2583 25.2734 19.6172H25.2744ZM8.375 20.7578C8.40799 21.1498 8.43041 21.5372 8.44141 21.9199C8.43043 21.5372 8.40797 21.1498 8.375 20.7578ZM20.4629 17.6729C19.4151 18.3864 18.3671 19.092 17.3193 19.79C17.8431 19.4411 18.3668 19.0901 18.8906 18.7373L20.4629 17.6729ZM13.8477 10.0078C13.994 10.286 14.1282 10.5711 14.25 10.8633C14.1282 10.5711 13.994 10.286 13.8477 10.0078ZM23.8701 34.126C24.0308 34.5107 24.1898 34.8963 24.3486 35.2822C24.1898 34.8963 24.0308 34.5107 23.8701 34.126Z" fill="black"/>
<path d="M6.04004 0.40625C10.2813 0.829268 14.2428 1.04296 17.9238 1.04297C21.1664 1.04297 24.2885 0.876519 27.29 0.548828C26.2224 3.0327 25.4026 4.95682 24.8271 6.31836C23.3617 5.76111 21.8495 5.31099 20.29 4.9707L19.0645 4.70312L19.251 24.0156C16.7031 24.4452 14.2898 25.4575 12.0176 27.0361L10.9346 27.7881L11.9512 28.6279C14.0991 30.4023 16.6734 31.2783 19.6191 31.2783C22.0976 31.2783 24.7156 30.6292 27.4658 29.3818C27.4538 29.6621 27.4454 29.9424 27.4355 30.2227C19.4011 33.8409 13.4953 34.2171 9.44727 31.8799C5.25594 29.4599 2.0789 25.1156 0 18.6748C2.73722 14.9599 6.27761 11.0922 10.6328 7.07422L11.4766 6.2959L10.5898 5.56738C9.69179 4.82909 8.6793 4.41707 7.57324 4.41699C6.81117 4.41699 5.75597 4.66115 4.48828 5.06348C3.91143 5.24656 3.27122 5.47103 2.56738 5.73242L6.04004 0.40625ZM6.88965 31.3525C7.02076 31.4557 7.1536 31.5562 7.28711 31.6553C7.1536 31.5562 7.02076 31.4557 6.88965 31.3525ZM19.1113 30.2686L18.6436 30.2422C18.6416 30.242 18.6397 30.2414 18.6377 30.2412C18.7942 30.2529 18.9521 30.2626 19.1113 30.2686ZM20.1621 30.2666C19.9801 30.2739 19.7991 30.2783 19.6191 30.2783C19.7991 30.2783 19.98 30.2739 20.1621 30.2666ZM18.4121 30.2207C18.3258 30.2127 18.2397 30.2061 18.1543 30.1963C18.2397 30.2061 18.3258 30.2127 18.4121 30.2207ZM21.7139 30.1201H21.7148H21.7139ZM17.9463 30.1689C17.8603 30.1576 17.7746 30.146 17.6895 30.1328C17.7746 30.146 17.8603 30.1576 17.9463 30.1689ZM17.4502 30.0918C17.382 30.0798 17.3137 30.0689 17.2461 30.0557C17.3137 30.0689 17.382 30.0798 17.4502 30.0918ZM16.9814 29.999C16.9171 29.9848 16.8529 29.9704 16.7891 29.9551C16.8529 29.9704 16.9171 29.9848 16.9814 29.999ZM16.5703 29.8994C16.4958 29.8799 16.4214 29.8609 16.3477 29.8398C16.4214 29.8609 16.4958 29.8799 16.5703 29.8994ZM16.1201 29.7715C16.0492 29.7495 15.9784 29.7275 15.9082 29.7041C15.9784 29.7275 16.0492 29.7495 16.1201 29.7715ZM15.7031 29.6328C15.6341 29.6082 15.5654 29.5827 15.4971 29.5566C15.5654 29.5827 15.6341 29.6082 15.7031 29.6328ZM15.2617 29.4639C15.2077 29.4417 15.1542 29.4186 15.1006 29.3955C15.1542 29.4186 15.2077 29.4417 15.2617 29.4639ZM14.8496 29.2842C14.7969 29.2598 14.7447 29.2343 14.6924 29.209C14.7447 29.2343 14.7969 29.2598 14.8496 29.2842ZM14.458 29.0928C14.3967 29.0611 14.3361 29.028 14.2754 28.9951C14.3361 29.028 14.3967 29.0611 14.458 29.0928ZM14.0732 28.8838C14.005 28.8448 13.9376 28.8043 13.8701 28.7637C13.9376 28.8043 14.005 28.8448 14.0732 28.8838ZM13.6885 28.6533C13.6319 28.6176 13.5765 28.5799 13.5205 28.543C13.5765 28.5799 13.6319 28.6176 13.6885 28.6533ZM13.2979 28.3945C13.2703 28.3754 13.2432 28.3554 13.2158 28.3359C13.2432 28.3554 13.2703 28.3754 13.2979 28.3945ZM14.4238 26.7275C13.861 27.0297 13.3068 27.3689 12.7588 27.7412C13.3068 27.3688 13.8609 27.0297 14.4238 26.7275ZM11.6025 8.0127C9.13589 10.3525 7.59488 12.8521 7.11719 15.5186C6.94983 16.4118 6.8711 17.4534 6.87109 18.6318C6.87109 19.9348 7.20124 21.3561 7.8125 22.8789L7.81445 22.8828C8.43106 24.4024 9.23242 25.7495 10.2236 26.9141L10.9238 27.7363L11.6895 26.9756C13.0411 25.6333 13.6608 23.6552 13.7256 21.2422V21.2402C13.8324 16.9986 13.8857 14.1112 13.8857 12.5898C13.8857 11.0007 13.6777 9.59083 13.2275 8.3877L12.6982 6.97363L11.6025 8.0127ZM2.38477 26.2842C2.58458 26.5975 2.78961 26.9023 2.99902 27.1992C2.78961 26.9023 2.58458 26.5975 2.38477 26.2842ZM9.46484 24.04V24.041V24.04ZM8.74121 22.5068L8.56152 22.0381C8.55819 22.029 8.55506 22.0198 8.55176 22.0107C8.61111 22.1738 8.67409 22.3396 8.74121 22.5068ZM8.46387 21.7559C8.43634 21.6758 8.40842 21.5967 8.38281 21.5176C8.40841 21.5967 8.43635 21.6758 8.46387 21.7559ZM8.32227 21.3242C8.28998 21.2191 8.25929 21.115 8.23047 21.0117C8.25927 21.115 8.28999 21.2191 8.32227 21.3242ZM8.19141 20.8682C8.16231 20.7586 8.1345 20.6504 8.10938 20.543C8.13447 20.6504 8.16234 20.7586 8.19141 20.8682ZM8.07031 20.3662C8.04724 20.2593 8.02589 20.1536 8.00684 20.0488C8.02587 20.1536 8.04726 20.2593 8.07031 20.3662ZM7.98828 19.9473C7.96755 19.8257 7.95079 19.7055 7.93555 19.5869C7.95077 19.7055 7.96758 19.8257 7.98828 19.9473ZM7.88379 19.0654C7.89246 19.2061 7.90588 19.349 7.92285 19.4941C7.90585 19.349 7.89246 19.2061 7.88379 19.0654ZM12.8291 16.6787C12.8246 16.9003 12.8204 17.1288 12.8154 17.3643C12.8204 17.1288 12.8246 16.9003 12.8291 16.6787ZM7.91309 17.2666C7.91444 17.2457 7.91557 17.2249 7.91699 17.2041C7.91557 17.2249 7.91444 17.2457 7.91309 17.2666ZM10.3564 10.8652L10.0371 11.2959C10.1969 11.0714 10.3676 10.849 10.5459 10.626C10.482 10.706 10.418 10.7851 10.3564 10.8652ZM9.69336 6.13965C9.78105 6.20251 9.86863 6.26877 9.95508 6.33984C9.10209 7.12679 8.27969 7.90889 7.4873 8.68555C7.22312 8.94451 6.96155 9.20214 6.7041 9.45996C6.44661 9.71781 6.19313 9.97572 5.94238 10.2324L5.2002 11C6.6637 9.46705 8.24896 7.91387 9.95508 6.33984C9.86877 6.26889 9.78089 6.20242 9.69336 6.13965ZM11.8584 9.16016C11.9986 9.01936 12.1423 8.87848 12.29 8.73828C12.1423 8.87848 11.9986 9.01936 11.8584 9.16016ZM2.65234 6.76562V6.7666V6.76562ZM23.4824 6.89453C23.6616 6.95561 23.8399 7.01869 24.0176 7.08301C23.8399 7.01868 23.6616 6.95562 23.4824 6.89453ZM22.8916 6.7002C23.0248 6.7426 23.1576 6.78592 23.29 6.83008C23.1576 6.78591 23.0248 6.7426 22.8916 6.7002ZM22.252 6.50488C22.3737 6.54072 22.4951 6.57697 22.6162 6.61426C22.4951 6.57697 22.3737 6.54073 22.252 6.50488ZM21.5078 6.2959C21.6747 6.34056 21.8411 6.38628 22.0068 6.43359C21.8411 6.38627 21.6747 6.34057 21.5078 6.2959ZM20.8662 6.13086C21.0472 6.17522 21.2276 6.22113 21.4072 6.26855C21.2276 6.22112 21.0472 6.17523 20.8662 6.13086ZM20.0771 5.94727C20.2949 5.99479 20.5117 6.04482 20.7275 6.09668C20.5117 6.04481 20.2949 5.99479 20.0771 5.94727ZM9.42578 5.96191C9.47409 5.99156 9.52139 6.0236 9.56934 6.05566C9.52139 6.02359 9.47409 5.99157 9.42578 5.96191ZM9.14648 5.80566C9.19724 5.83157 9.24749 5.85919 9.29785 5.8877C9.24749 5.85918 9.19724 5.83158 9.14648 5.80566ZM8.86328 5.67578C8.91759 5.69805 8.97151 5.72191 9.02539 5.74707C8.97151 5.7219 8.91759 5.69805 8.86328 5.67578ZM8.57129 5.57129C8.63043 5.58967 8.6894 5.60914 8.74805 5.63086C8.6894 5.60914 8.63043 5.58967 8.57129 5.57129ZM8.27832 5.49414C8.33973 5.50735 8.40102 5.52137 8.46191 5.53809C8.40102 5.52137 8.33974 5.50735 8.27832 5.49414ZM15.0029 0C15.9961 0.0288234 16.9697 0.0429661 17.9238 0.0429688C16.9698 0.0429661 15.9961 0.0287827 15.0029 0Z" fill="black"/>
</svg>
